####
#
# OBJ File Generated by Meshlab
#
####
# Object trans_finray_L_simplified.obj
#
# Vertices: 28
# Faces: 52
#
####
vn -3.141593 -3.141595 0.000000
v -0.013000 0.000000 0.117899
vn -3.141593 -3.141594 0.000000
v -0.013000 0.000000 0.131599
vn -2.987103 2.825336 1.351974
v -0.013000 0.015209 0.123848
vn -3.141593 -3.141595 0.000000
v -0.013000 0.000000 0.104199
vn 3.141593 -3.141595 0.000000
v 0.013000 0.000000 0.104199
vn 3.141593 -3.141595 0.000000
v 0.013000 0.000000 0.117899
vn 3.141593 -3.141594 0.000000
v 0.013000 0.000000 0.131599
vn 3.141593 -3.140627 -0.000222
v 0.013000 0.000000 0.090499
vn -3.141593 -3.140627 -0.000222
v -0.013000 0.000000 0.090499
vn 2.987104 2.825336 1.351974
v 0.013000 0.015209 0.123848
vn -2.926617 3.018467 0.808178
v -0.012988 0.032232 0.079845
vn 2.926617 3.018467 0.808178
v 0.012988 0.032232 0.079845
vn -1.416636 1.552090 -1.329434
v -0.013000 0.041221 0.022000
vn -3.141593 -3.140389 0.000000
v -0.013000 0.000000 0.063099
vn -3.141593 -3.140389 0.000000
v -0.013000 0.000000 0.076799
vn -3.141593 -3.141069 0.000320
v -0.013000 0.000000 0.049400
vn 3.141593 -3.140389 0.000000
v 0.013000 0.000000 0.063099
vn 3.141593 -3.141069 0.000320
v 0.013000 0.000000 0.049400
vn 3.141593 -3.140389 0.000000
v 0.013000 0.000000 0.076799
vn -3.141593 -3.141594 0.000000
v -0.013000 0.000000 0.035700
vn 3.141593 -3.141594 0.000000
v 0.013000 0.000000 0.035700
vn 1.570796 -1.570797 -1.570797
v 0.013000 0.000000 0.022000
vn -1.570796 -1.570797 -1.570797
v -0.013000 0.000000 0.022000
vn 1.416636 1.552090 -1.329434
v 0.013000 0.041221 0.022000
vn 2.088772 1.351457 2.356203
v 0.013000 0.002815 0.145314
vn -2.088772 1.351457 2.356204
v -0.013000 0.002815 0.145314
vn -1.576445 -1.579669 1.570771
v -0.013000 0.000000 0.145298
vn 1.576445 -1.579669 1.570771
v 0.013000 0.000000 0.145298
# 28 vertices, 0 vertices normals

f 1//1 2//2 3//3
f 1//1 3//3 4//4
f 1//1 5//5 6//6
f 1//1 4//4 5//5
f 1//1 6//6 7//7
f 1//1 7//7 2//2
f 4//4 8//8 5//5
f 4//4 3//3 9//9
f 4//4 9//9 8//8
f 5//5 8//8 10//10
f 5//5 10//10 6//6
f 11//11 12//12 13//13
f 11//11 3//3 12//12
f 11//11 14//14 15//15
f 11//11 16//16 14//14
f 11//11 15//15 9//9
f 11//11 13//13 16//16
f 11//11 9//9 3//3
f 17//17 18//18 12//12
f 17//17 12//12 19//19
f 17//17 19//19 15//15
f 17//17 15//15 14//14
f 17//17 14//14 16//16
f 17//17 16//16 18//18
f 16//16 13//13 20//20
f 16//16 21//21 18//18
f 16//16 20//20 21//21
f 20//20 22//22 21//21
f 20//20 23//23 22//22
f 20//20 13//13 23//23
f 24//24 22//22 13//13
f 24//24 13//13 12//12
f 24//24 18//18 21//21
f 24//24 12//12 18//18
f 24//24 21//21 22//22
f 6//6 10//10 7//7
f 10//10 12//12 3//3
f 10//10 3//3 25//25
f 10//10 8//8 12//12
f 10//10 25//25 7//7
f 19//19 12//12 8//8
f 19//19 9//9 15//15
f 19//19 8//8 9//9
f 26//26 3//3 2//2
f 26//26 27//27 25//25
f 26//26 25//25 3//3
f 26//26 2//2 27//27
f 27//27 2//2 7//7
f 27//27 28//28 25//25
f 27//27 7//7 28//28
f 13//13 22//22 23//23
f 7//7 25//25 28//28
# 52 faces, 0 coords texture

# End of File
